<svg height="512pt" viewBox="0 -20 512.00791 512" width="512pt" xmlns="http://www.w3.org/2000/svg"><g fill="#3880ff"><path d="m481.128906 247.324219c-8.21875-.984375-15.691406 4.890625-16.671875 13.117187-12.328125 103.289063-100.296875 181.183594-204.621093 181.183594-93.828126 0-174.414063-63.011719-198.652344-150.832031l17.945312 9.855469c7.261719 3.984374 16.378906 1.335937 20.367188-5.925782 3.988281-7.261718 1.335937-16.378906-5.925782-20.367187l-46.027343-25.285157c-7.070313-3.882812-16.34375-1.054687-20.363281 5.910157l-25.316407 45.972656c-3.996093 7.257813-1.351562 16.378906 5.902344 20.375 7.191406 2.894531 15.941406 1.144531 20.375-5.902344l5.867187-10.652343c29.722657 97.5 120.488282 166.851562 225.828126 166.851562 119.507812 0 220.28125-89.261719 234.410156-207.628906.980468-8.226563-4.894532-15.691406-13.117188-16.671875zm0 0"/><path d="m502.933594 128.09375c-7.601563-3.277344-16.429688.226562-19.710938 7.835938l-4.726562 10.953124c-14.769532-36.113281-38.472656-68.429687-69.003906-93.449218-42.035157-34.457032-95.183594-53.42968775-149.65625-53.42968775-54.472657 0-107.621094 18.97265575-149.660157 53.42968775-41.457031 33.976562-70.347656 81.398437-81.347656 133.523437-1.710937 8.105469 3.476563 16.0625 11.582031 17.773438 8.101563 1.714843 16.0625-3.476563 17.773438-11.578125 9.59375-45.472656 34.8125-86.851563 71.007812-116.519532 36.6875-30.070312 83.085938-46.628906 130.644532-46.628906 47.554687 0 93.953124 16.558594 130.640624 46.628906 28.199219 23.109376 49.730469 53.332032 62.410157 87.058594l-18.992188-8.167968c-7.605469-3.269532-16.429687.242187-19.707031 7.851562-3.273438 7.609375.242188 16.433594 7.855469 19.707031l47.652343 20.496094c7.296876 2.78125 16.308594.609375 20.296876-7.585937l20.777343-48.1875c3.28125-7.605469-.226562-16.429688-7.835937-19.710938zm0 0"/><path d="m168.542969 270.3125c-8.285157 0-15 6.714844-15 15v6.007812c0 31.515626 25.660156 57.152344 57.203125 57.152344h6.238281v20.058594c0 8.28125 6.714844 15 15 15 8.28125 0 15-6.71875 15-15v-20.058594h18.03125v20.058594c0 8.28125 6.714844 15 15 15s15-6.71875 15-15v-20.058594h6.238281c31.542969 0 57.203125-25.636718 57.203125-57.152344v-8.691406c0-22.453125-15.113281-42.351562-36.757812-48.394531l-26.683594-7.449219v-73.628906h6.234375c15.003906 0 27.207031 12.179688 27.207031 27.148438v2.417968c0 8.28125 6.714844 14.996094 15 14.996094 8.28125 0 15-6.714844 15-14.996094v-2.417968c0-31.511719-25.664062-57.148438-57.207031-57.148438h-6.234375v-31.207031c0-8.285157-6.71875-15-15-15-8.285156 0-15 6.714843-15 15v31.207031h-18.035156v-31.207031c0-8.285157-6.714844-15-15-15-8.28125 0-15 6.714843-15 15v31.207031h-6.234375c-31.542969 0-57.207032 25.636719-57.207032 57.148438 0 22.453124 15.117188 42.351562 36.761719 48.394531l26.683594 7.449219v82.324218h-6.238281c-15 0-27.203125-12.179687-27.203125-27.152344v-6.007812c0-8.285156-6.71875-15-15-15zm126.472656-12.382812 18.617187 5.199218c8.726563 2.4375 14.824219 10.453125 14.824219 19.5v8.691406c0 14.972657-12.203125 27.152344-27.203125 27.152344h-6.238281zm-48.03125-104.773438h18.03125v65.253906l-18.03125-5.035156zm0 91.367188 18.03125 5.03125v68.917968h-18.03125zm-48.617187-44.71875c-8.730469-2.4375-14.824219-10.457032-14.824219-19.5 0-14.96875 12.203125-27.152344 27.203125-27.152344h6.238281v51.847656zm0 0"/></g></svg>